<?xml version="1.0" encoding="iso-8859-1"?>
<!-- Generator: Adobe Illustrator 22.0.1, SVG Export Plug-In . SVG Version: 6.00 Build 0)  -->
<svg version="1.1" id="Layer_1_1_" xmlns="http://www.w3.org/2000/svg" xmlns:xlink="http://www.w3.org/1999/xlink" x="0px" y="0px"
	 viewBox="0 0 64 64" style="enable-background:new 0 0 64 64;" xml:space="preserve">
<g id="Guide">
	<g>
	</g>
	<g>
	</g>
	<g>
	</g>
	<g>
	</g>
	<g>
	</g>
	<g>
	</g>
	<g>
	</g>
	<g>
	</g>
	<g>
	</g>
	<g>
	</g>
	<g>
	</g>
	<g>
	</g>
	<g>
	</g>
	<g>
	</g>
	<g>
	</g>
	<g>
	</g>
	<g>
	</g>
	<g>
	</g>
	<g>
	</g>
	<g>
	</g>
	<g>
	</g>
	<g>
	</g>
	<g>
	</g>
	<g>
	</g>
	<g>
	</g>
	<g>
	</g>
	<g>
	</g>
	<g>
	</g>
	<g>
	</g>
	<g>
	</g>
	<g>
	</g>
	<g>
	</g>
	<g>
	</g>
	<g>
	</g>
	<g>
	</g>
	<g>
	</g>
</g>
<path d="M10,32.586l-2.293-2.293l-1.414,1.414l3,3C9.488,34.902,9.744,35,10,35s0.512-0.098,0.707-0.293l5-5l-1.414-1.414L10,32.586
	z"/>
<path d="M52,35c0.256,0,0.512-0.098,0.707-0.293l5-5l-1.414-1.414L52,32.586l-2.293-2.293l-1.414,1.414l3,3
	C51.488,34.902,51.744,35,52,35z"/>
<path d="M10,11.586L7.707,9.293l-1.414,1.414l3,3C9.488,13.902,9.744,14,10,14s0.512-0.098,0.707-0.293l5-5l-1.414-1.414L10,11.586z
	"/>
<path d="M53,20c4.962,0,9-4.037,9-9s-4.038-9-9-9s-9,4.037-9,9c0,2.122,0.742,4.071,1.975,5.611l-7.965,7.965L33,22.35v-2.409
	c4.493-0.499,8-4.316,8-8.941c0-4.963-4.038-9-9-9s-9,4.037-9,9c0,4.625,3.507,8.442,8,8.941v2.409l-5.01,2.226l-7.965-7.965
	C19.258,15.071,20,13.122,20,11c0-4.963-4.038-9-9-9s-9,4.037-9,9s4.038,9,9,9c2.122,0,4.071-0.742,5.611-1.975l7.422,7.422
	l-1.439,0.639c-0.021,0.009-0.036,0.025-0.056,0.036c-0.027,0.014-0.057,0.023-0.083,0.04c-0.022,0.014-0.039,0.034-0.06,0.05
	c-0.028,0.022-0.055,0.043-0.08,0.068c-0.041,0.039-0.077,0.081-0.111,0.127c-0.02,0.027-0.041,0.052-0.058,0.081
	c-0.031,0.052-0.055,0.107-0.076,0.164c-0.01,0.027-0.024,0.052-0.032,0.08C22.015,26.818,22,26.908,22,27v4h-2.059
	c-0.5-4.493-4.317-8-8.941-8c-4.962,0-9,4.037-9,9s4.038,9,9,9c4.624,0,8.442-3.507,8.941-8H22v4c0,0.396,0.233,0.753,0.594,0.914
	l1.439,0.639l-7.422,7.422C15.071,44.742,13.122,44,11,44c-4.962,0-9,4.037-9,9s4.038,9,9,9s9-4.037,9-9
	c0-2.122-0.742-4.071-1.975-5.611l7.965-7.965L31,41.65v2.409c-4.493,0.499-8,4.316-8,8.941c0,4.963,4.038,9,9,9s9-4.037,9-9
	c0-4.625-3.507-8.442-8-8.941V41.65l5.01-2.226l7.965,7.965C44.742,48.929,44,50.878,44,53c0,4.963,4.038,9,9,9s9-4.037,9-9
	s-4.038-9-9-9c-2.122,0-4.071,0.742-5.611,1.975l-7.422-7.422l1.439-0.639C41.767,37.753,42,37.396,42,37v-4h2.059
	c0.5,4.493,4.317,8,8.941,8c4.962,0,9-4.037,9-9s-4.038-9-9-9c-4.624,0-8.442,3.507-8.941,8H42v-4c0-0.092-0.015-0.182-0.039-0.269
	c-0.008-0.028-0.021-0.053-0.032-0.08c-0.021-0.057-0.045-0.112-0.076-0.164c-0.017-0.029-0.038-0.054-0.058-0.081
	c-0.034-0.045-0.07-0.087-0.111-0.127c-0.025-0.024-0.052-0.046-0.08-0.068c-0.021-0.016-0.037-0.036-0.06-0.05
	c-0.027-0.017-0.057-0.026-0.084-0.041c-0.019-0.01-0.034-0.025-0.054-0.034l-1.439-0.639l7.422-7.422
	C48.929,19.258,50.878,20,53,20z M11,18c-3.86,0-7-3.141-7-7s3.14-7,7-7s7,3.141,7,7S14.86,18,11,18z M11,39c-3.86,0-7-3.141-7-7
	s3.14-7,7-7s7,3.141,7,7S14.86,39,11,39z M11,60c-3.86,0-7-3.141-7-7s3.14-7,7-7s7,3.141,7,7S14.86,60,11,60z M53,46
	c3.86,0,7,3.141,7,7s-3.14,7-7,7s-7-3.141-7-7S49.14,46,53,46z M53,25c3.86,0,7,3.141,7,7s-3.14,7-7,7s-7-3.141-7-7S49.14,25,53,25z
	 M34.179,28.937L32,29.905l-2.179-0.968L25.463,27L32,24.095L38.537,27L34.179,28.937z M25,11c0-3.859,3.14-7,7-7s7,3.141,7,7
	s-3.14,7-7,7S25,14.859,25,11z M24,28.539l7,3.111v7.811l-7-3.11V28.539z M39,53c0,3.859-3.14,7-7,7s-7-3.141-7-7s3.14-7,7-7
	S39,49.141,39,53z M40,36.351l-7,3.11V31.65l7-3.111V36.351z M53,4c3.86,0,7,3.141,7,7s-3.14,7-7,7s-7-3.141-7-7S49.14,4,53,4z"/>
<path d="M52,14c0.256,0,0.512-0.098,0.707-0.293l5-5l-1.414-1.414L52,11.586l-2.293-2.293l-1.414,1.414l3,3
	C51.488,13.902,51.744,14,52,14z"/>
<path d="M35.293,7.293L31,11.586l-2.293-2.293l-1.414,1.414l3,3C30.488,13.902,30.744,14,31,14s0.512-0.098,0.707-0.293l5-5
	L35.293,7.293z"/>
<path d="M10,53.586l-2.293-2.293l-1.414,1.414l3,3C9.488,55.902,9.744,56,10,56s0.512-0.098,0.707-0.293l5-5l-1.414-1.414L10,53.586
	z"/>
<path d="M52,56c0.256,0,0.512-0.098,0.707-0.293l5-5l-1.414-1.414L52,53.586l-2.293-2.293l-1.414,1.414l3,3
	C51.488,55.902,51.744,56,52,56z"/>
<path d="M28.707,51.293l-1.414,1.414l3,3C30.488,55.902,30.744,56,31,56s0.512-0.098,0.707-0.293l5-5l-1.414-1.414L31,53.586
	L28.707,51.293z"/>
</svg>
